<svg xmlns="http://www.w3.org/2000/svg" viewBox="0 0 512 512" width="512" height="512">
  <rect width="512" height="512" rx="100" fill="#09090b"/>
  <g transform="translate(256,256)">
    <rect x="-160" y="-90" width="320" height="180" rx="16" fill="#fff9f0"/>
    <rect x="-160" y="-90" width="320" height="180" rx="16" fill="none" stroke="#d4a847" stroke-width="3"/>
    <rect x="-160" y="-90" width="320" height="180" rx="16" fill="#fff9f0"/>
    <rect x="-160" y="-90" width="320" height="180" rx="16" fill="none" stroke="#d4a847" stroke-width="3"/>
    <circle cx="-160" cy="0" r="18" fill="#09090b"/>
    <circle cx="160" cy="0" r="18" fill="#09090b"/>
    <line x1="-140" y1="0" x2="140" y2="0" stroke="#d4a847" stroke-width="2" stroke-dasharray="8,5"/>
    <rect x="-110" y="-58" width="220" height="42" rx="6" fill="#d4a847"/>
    <rect x="-80" y="20" width="60" height="10" rx="3" fill="#ccc"/>
    <rect x="-80" y="38" width="100" height="10" rx="3" fill="#eee"/>
    <rect x="30" y="20" width="50" height="48" rx="4" fill="none" stroke="#999" stroke-width="2"/>
    <rect x="36" y="26" width="38" height="8" rx="2" fill="#bbb"/>
    <rect x="36" y="40" width="38" height="8" rx="2" fill="#bbb"/>
    <rect x="36" y="54" width="25" height="8" rx="2" fill="#bbb"/>
  </g>
</svg>
